HIERARCHY
ROOT hip
{
  OFFSET 0 0 0
  CHANNELS 6 Xposition Yposition Zposition Zrotation Yrotation Xrotation
  JOINT abdomen
  {
    OFFSET 0 20.6881 -0.73152
    CHANNELS 3 Zrotation Xrotation Yrotation
    JOINT chest
    {
      OFFSET 0 11.7043 -0.48768
      CHANNELS 3 Zrotation Xrotation Yrotation
      JOINT neck
      {
        OFFSET 0 22.1894 -2.19456
        CHANNELS 3 Zrotation Xrotation Yrotation
        JOINT head
        {
          OFFSET -0.24384 7.07133 1.2192
          CHANNELS 3 Zrotation Xrotation Yrotation
          JOINT leftEye
          {
            OFFSET 4.14528 8.04674 8.04672
            CHANNELS 3 Zrotation Xrotation Yrotation
            End Site
            {
              OFFSET 1 0 0
            }
          }
          JOINT rightEye
          {
            OFFSET -3.6576 8.04674 8.04672
            CHANNELS 3 Zrotation Xrotation Yrotation
            End Site
            {
              OFFSET 1 0 0
            }
          }
        }
      }
      JOINT rCollar
      {
        OFFSET -2.68224 19.2634 -4.8768
        CHANNELS 3 Zrotation Xrotation Yrotation
        JOINT rShldr
        {
          OFFSET -8.77824 -1.95073 1.46304
          CHANNELS 3 Zrotation Xrotation Yrotation
          JOINT rForeArm
          {
            OFFSET -28.1742 -1.7115 0.48768
            CHANNELS 3 Zrotation Xrotation Yrotation
            JOINT rHand
            {
              OFFSET -22.5879 0.773209 7.07136
              CHANNELS 3 Zrotation Xrotation Yrotation
              JOINT rThumb1
              {
                OFFSET -1.2192 -0.487915 3.41376
                CHANNELS 3 Zrotation Xrotation Yrotation
                JOINT rThumb2
                {
                  OFFSET -3.37035 -0.52449 3.41376
                  CHANNELS 3 Zrotation Xrotation Yrotation
                  End Site
                  {
                    OFFSET -1.78271 -1.18214 1.43049
                  }
                }
              }
              JOINT rIndex1
              {
                OFFSET -7.75947 0.938293 5.60832
                CHANNELS 3 Zrotation Xrotation Yrotation
                JOINT rIndex2
                {
                  OFFSET -2.54057 -0.884171 1.56538
                  CHANNELS 3 Zrotation Xrotation Yrotation
                  End Site
                  {
                    OFFSET -1.62519 -0.234802 1.16502
                  }
                }
              }
              JOINT rMid1
              {
                OFFSET -8.24714 1.18213 3.41376
                CHANNELS 3 Zrotation Xrotation Yrotation
                JOINT rMid2
                {
                  OFFSET -3.10165 -0.590103 1.0647
                  CHANNELS 3 Zrotation Xrotation Yrotation
                  End Site
                  {
                    OFFSET -2.48547 -0.328903 0.83742
                  }
                }
              }
              JOINT rRing1
              {
                OFFSET -8.82822 0.546677 1.51678
                CHANNELS 3 Zrotation Xrotation Yrotation
                JOINT rRing2
                {
                  OFFSET -2.60934 -0.819778 -0.0198488
                  CHANNELS 3 Zrotation Xrotation Yrotation
                  End Site
                  {
                    OFFSET -2.33842 -0.294052 0.168128
                  }
                }
              }
              JOINT rPinky1
              {
                OFFSET -8.27202 -0.0477905 -0.4584
                CHANNELS 3 Zrotation Xrotation Yrotation
                JOINT rPinky2
                {
                  OFFSET -1.82734 -0.647385 -0.700984
                  CHANNELS 3 Zrotation Xrotation Yrotation
                  End Site
                  {
                    OFFSET -1.69225 -0.51767 -0.607171
                  }
                }
              }
            }
          }
        }
      }
      JOINT lCollar
      {
        OFFSET 2.68224 19.2634 -4.8768
        CHANNELS 3 Zrotation Xrotation Yrotation
        JOINT lShldr
        {
          OFFSET 8.77824 -1.95073 1.46304
          CHANNELS 3 Zrotation Xrotation Yrotation
          JOINT lForeArm
          {
            OFFSET 28.1742 -1.7115 0.48768
            CHANNELS 3 Zrotation Xrotation Yrotation
            JOINT lHand
            {
              OFFSET 22.5879 0.773209 7.07136
              CHANNELS 3 Zrotation Xrotation Yrotation
              JOINT lThumb1
              {
                OFFSET 1.2192 -0.487915 3.41376
                CHANNELS 3 Zrotation Xrotation Yrotation
                JOINT lThumb2
                {
                  OFFSET 3.37035 -0.52449 3.41376
                  CHANNELS 3 Zrotation Xrotation Yrotation
                  End Site
                  {
                    OFFSET 1.78271 -1.18214 1.43049
                  }
                }
              }
              JOINT lIndex1
              {
                OFFSET 7.75947 0.938293 5.60832
                CHANNELS 3 Zrotation Xrotation Yrotation
                JOINT lIndex2
                {
                  OFFSET 2.54057 -0.884171 1.56538
                  CHANNELS 3 Zrotation Xrotation Yrotation
                  End Site
                  {
                    OFFSET 1.62519 -0.234802 1.16502
                  }
                }
              }
              JOINT lMid1
              {
                OFFSET 8.24714 1.18213 3.41376
                CHANNELS 3 Zrotation Xrotation Yrotation
                JOINT lMid2
                {
                  OFFSET 3.10165 -0.590103 1.0647
                  CHANNELS 3 Zrotation Xrotation Yrotation
                  End Site
                  {
                    OFFSET 2.48547 -0.328903 0.83742
                  }
                }
              }
              JOINT lRing1
              {
                OFFSET 8.82822 0.546677 1.51678
                CHANNELS 3 Zrotation Xrotation Yrotation
                JOINT lRing2
                {
                  OFFSET 2.60934 -0.819778 -0.0198488
                  CHANNELS 3 Zrotation Xrotation Yrotation
                  End Site
                  {
                    OFFSET 2.33842 -0.294052 0.168128
                  }
                }
              }
              JOINT lPinky1
              {
                OFFSET 8.27202 -0.0477905 -0.4584
                CHANNELS 3 Zrotation Xrotation Yrotation
                JOINT lPinky2
                {
                  OFFSET 1.82734 -0.647385 -0.700984
                  CHANNELS 3 Zrotation Xrotation Yrotation
                  End Site
                  {
                    OFFSET 1.69225 -0.51767 -0.607171
                  }
                }
              }
            }
          }
        }
      }
    }
  }
  JOINT rButtock
  {
    OFFSET -8.77824 4.35084 1.2192
    CHANNELS 3 Zrotation Xrotation Yrotation
    JOINT rThigh
    {
      OFFSET 0 -1.70687 -2.19456
      CHANNELS 3 Zrotation Xrotation Yrotation
      JOINT rShin
      {
        OFFSET 0 -36.8199 0.73152
        CHANNELS 3 Zrotation Xrotation Yrotation
        JOINT rFoot
        {
          OFFSET 0.73152 -45.1104 -5.12064
          CHANNELS 3 Zrotation Xrotation Yrotation
          End Site
          {
            OFFSET -1.1221 -3.69964 12.103
          }
        }
      }
    }
  }
  JOINT lButtock
  {
    OFFSET 8.77824 4.35084 1.2192
    CHANNELS 3 Zrotation Xrotation Yrotation
    JOINT lThigh
    {
      OFFSET 0 -1.70687 -2.19456
      CHANNELS 3 Zrotation Xrotation Yrotation
      JOINT lShin
      {
        OFFSET 0 -36.8199 0.73152
        CHANNELS 3 Zrotation Xrotation Yrotation
        JOINT lFoot
        {
          OFFSET -0.73152 -45.1104 -5.12064
          CHANNELS 3 Zrotation Xrotation Yrotation
          End Site
          {
            OFFSET 1.1221 -3.69964 12.103
          }
        }
      }
    }
  }
}
MOTION
Frames:	9
Frame Time:	0.00833333
43.4384 14.9978 21.8671 -62.7998 20.1592 -71.964 11.478 33.4593 -5.58007 5.08135 -0.181426 -0.59846 -4.40537 19.5659 -5.92648 13.6798 -34.0714 -8.0299 -0.0 0.0 0.0 -0.0 0.0 0.0 -3.73478e-13 3.94463e-13 1.57611e-13 37.6137 -12.1481 -20.0352 -7.79806 -2.90817 13.731 -0.781022 24.2649 3.6318 -9.89491e-10 1.25064e-09 1.56485e-09 -1.67871e-09 2.11549e-09 2.72536e-09 -9.89483e-10 1.25064e-09 1.56484e-09 7.73091 5.47488 0.417314 -9.89491e-10 1.25064e-09 1.56485e-09 2.90554 0.965183 0.102902 -9.89483e-10 1.25064e-09 1.56485e-09 10.2786 0.731801 0.0259123 -9.89495e-10 1.25064e-09 1.56486e-09 2.22167 -0.733487 -0.20892 -3.73762e-13 3.94512e-13 1.57278e-13 -1.26906 32.4574 -27.3676 22.7364 -16.9067 -45.8189 0.0270665 -4.56158 0.642477 -1.57942e-09 3.99479e-10 -1.53332e-09 -2.72144e-09 7.09227e-10 -2.65546e-09 -1.57942e-09 3.99482e-10 -1.53329e-09 -7.73091 5.47488 -0.417314 -1.57942e-09 3.99474e-10 -1.53331e-09 -2.90554 0.965183 -0.102902 -1.57943e-09 3.9947e-10 -1.53331e-09 -10.2786 0.731801 -0.0259123 -1.57941e-09 3.99478e-10 -1.53331e-09 -2.22167 -0.733487 0.20892 -2.03217e-16 0.0 -3.88251e-19 -25.758 -52.3793 -18.3615 -175.389 74.3985 176.645 -6.61731 -15.9855 -10.0964 2.03217e-16 0.0 3.88251e-19 103.496 -43.0528 118.185 177.154 37.8699 -175.277 7.69155 34.3118 -20.441
44.0531 15.1865 21.4717 -63.165 18.9498 -73.2209 12.1619 33.62 -6.5731 5.58815 0.179687 -0.8341 -4.52524 19.4722 -5.75693 14.0138 -33.0561 -7.69977 -0.0 0.0 0.0 -0.0 0.0 0.0 -3.04117e-14 1.11303e-13 1.411e-13 38.9434 -11.0395 -20.2146 -8.15366 -3.09116 14.3852 -0.70084 23.0089 3.42209 -5.50985e-10 3.4806e-10 1.81964e-09 -9.19239e-10 5.53803e-10 3.15418e-09 -5.50978e-10 3.48061e-10 1.81962e-09 7.73091 5.47488 0.417314 -5.50985e-10 3.48061e-10 1.81964e-09 2.90554 0.965183 0.102902 -5.50977e-10 3.48061e-10 1.81964e-09 10.2786 0.731801 0.0259123 -5.5099e-10 3.48063e-10 1.81965e-09 2.22167 -0.733487 -0.20892 -3.06175e-14 1.11335e-13 1.40876e-13 -0.351521 32.5118 -27.9537 22.4079 -16.3851 -44.8926 0.035455 -5.27927 0.744078 -1.65504e-10 1.80014e-10 -3.17306e-10 -2.85462e-10 3.07545e-10 -5.45905e-10 -1.65501e-10 1.80018e-10 -3.17283e-10 -7.73091 5.47488 -0.417314 -1.65501e-10 1.80012e-10 -3.17301e-10 -2.90554 0.965183 -0.102902 -1.65513e-10 1.80007e-10 -3.17303e-10 -10.2786 0.731801 -0.0259123 -1.65495e-10 1.80014e-10 -3.17305e-10 -2.22167 -0.733487 0.20892 -2.03217e-16 0.0 -3.88251e-19 -26.0887 -55.1305 -20.6939 -174.669 76.73 175.765 -6.60882 -15.7934 -10.6637 2.03217e-16 0.0 3.88251e-19 101.191 -43.3522 114.912 177.144 38.5964 -175.307 7.32976 33.4741 -20.3805
44.6046 15.3267 21.0742 -63.4587 17.6838 -74.5035 12.6921 33.8251 -7.5685 6.10567 0.550436 -1.08783 -4.61882 19.3629 -5.57632 14.2882 -32.0656 -7.36648 -0.0 0.0 0.0 -0.0 0.0 0.0 3.17969e-13 -1.67085e-13 1.22458e-13 40.0999 -9.84626 -20.3937 -8.57513 -3.31586 15.1615 -0.600509 21.3536 3.15116 -1.97322e-10 -3.64879e-10 2.03974e-09 -3.06848e-10 -6.78547e-10 3.52449e-09 -1.97316e-10 -3.64878e-10 2.03972e-09 7.73091 5.47488 0.417314 -1.97321e-10 -3.64879e-10 2.03974e-09 2.90554 0.965183 0.102902 -1.97313e-10 -3.64879e-10 2.03974e-09 10.2786 0.731801 0.0259123 -1.97327e-10 -3.64878e-10 2.03975e-09 2.22167 -0.733487 -0.20892 3.17848e-13 -1.67072e-13 1.22344e-13 0.420849 32.6469 -28.4379 22.063 -15.8538 -43.9512 0.0428301 -5.88577 0.830116 1.30661e-09 2.67538e-10 7.79367e-10 2.25075e-09 4.36454e-10 1.35698e-09 1.30661e-09 2.67542e-10 7.79388e-10 -7.73091 5.47488 -0.417314 1.30661e-09 2.67538e-10 7.79372e-10 -2.90554 0.965183 -0.102902 1.3066e-09 2.67533e-10 7.79368e-10 -10.2786 0.731801 -0.0259123 1.30662e-09 2.67539e-10 7.79366e-10 -2.22167 -0.733487 0.20892 -2.03217e-16 0.0 -3.88251e-19 -26.9226 -57.7655 -23.2025 -173.537 79.2326 174.442 -6.52347 -15.5031 -11.1268 2.03217e-16 0.0 3.88251e-19 98.3766 -43.2339 111.006 177.133 39.2817 -175.336 6.78062 32.1086 -20.4345
45.1215 15.4089 20.6463 -63.6319 16.4332 -75.842 12.9986 34.1111 -8.58318 6.59952 0.902857 -1.36163 -4.66751 19.3057 -5.39786 14.5003 -31.2173 -7.0433 -0.0 0.0 0.0 -0.0 0.0 0.0 5.53392e-13 -3.62583e-13 7.31528e-14 41.094 -8.6293 -20.57 -9.04796 -3.58254 16.0277 -0.486084 19.4205 2.84009 4.43725e-12 -8.32817e-10 2.08158e-09 4.06964e-11 -1.48429e-09 3.59074e-09 4.44204e-12 -8.32815e-10 2.08156e-09 7.73091 5.47488 0.417314 4.43881e-12 -8.32817e-10 2.08158e-09 2.90554 0.965183 0.102902 4.44691e-12 -8.32817e-10 2.08159e-09 10.2786 0.731801 0.0259123 4.4319e-12 -8.32816e-10 2.0816e-09 2.22167 -0.733487 -0.20892 5.53329e-13 -3.62583e-13 7.31031e-14 1.02468 32.8192 -28.8016 21.717 -15.3381 -43.0314 0.0508776 -6.4237 0.906632 2.15149e-09 1.84933e-10 1.49088e-09 3.70556e-09 2.79867e-10 2.59089e-09 2.1515e-09 1.84938e-10 1.4909e-09 -7.73091 5.47488 -0.417314 2.1515e-09 1.84935e-10 1.49088e-09 -2.90554 0.965183 -0.102902 2.15149e-09 1.84929e-10 1.49088e-09 -10.2786 0.731801 -0.0259123 2.15151e-09 1.84935e-10 1.49088e-09 -2.22167 -0.733487 0.20892 -2.03217e-16 0.0 -3.88251e-19 -28.2155 -60.1621 -25.6769 -171.621 81.9128 172.309 -6.36408 -15.2528 -11.3967 2.03217e-16 0.0 3.88251e-19 94.7683 -42.2408 105.904 177.128 39.8659 -175.4 6.04457 30.0453 -20.9383
45.6116 15.4208 20.1671 -63.6589 15.2734 -77.1672 13.0713 34.5174 -9.63527 7.00652 1.22648 -1.65149 -4.65415 19.3133 -5.21338 14.6783 -30.5607 -6.69981 -0.0 0.0 0.0 -0.0 0.0 0.0 6.31119e-13 -4.48158e-13 -3.32891e-14 41.9657 -7.30068 -20.7756 -9.59601 -3.9065 17.0352 -0.34449 16.878 2.43937 -3.84725e-11 -9.33311e-10 1.87776e-09 -3.81706e-11 -1.64974e-09 3.23857e-09 -3.84678e-11 -9.33308e-10 1.87774e-09 7.73091 5.47488 0.417314 -3.84713e-11 -9.3331e-10 1.87776e-09 2.90554 0.965183 0.102902 -3.84626e-11 -9.33311e-10 1.87777e-09 10.2786 0.731801 0.0259123 -3.84775e-11 -9.33309e-10 1.87778e-09 2.22167 -0.733487 -0.20892 6.31081e-13 -4.48161e-13 -3.33446e-14 1.50453 33.0734 -29.049 21.3828 -14.8551 -42.1615 0.0596962 -6.93108 0.978961 1.97213e-09 -2.69379e-10 1.61859e-09 3.39398e-09 -5.058e-10 2.81035e-09 1.97213e-09 -2.69374e-10 1.61861e-09 -7.73091 5.47488 -0.417314 1.97213e-09 -2.69376e-10 1.61859e-09 -2.90554 0.965183 -0.102902 1.97212e-09 -2.69383e-10 1.61859e-09 -10.2786 0.731801 -0.0259123 1.97214e-09 -2.69377e-10 1.61858e-09 -2.22167 -0.733487 0.20892 -2.03217e-16 0.0 -3.88251e-19 -29.9022 -62.3384 -28.0992 -167.402 84.7881 167.819 -6.08165 -15.0371 -11.3568 2.03217e-16 0.0 3.88251e-19 90.324 -39.3747 99.4664 177.14 40.2293 -175.543 4.90656 26.9076 -22.2678
46.1159 15.3767 19.5823 -63.5736 14.2855 -78.5142 12.9563 35.0123 -10.7182 7.36324 1.53718 -1.95792 -4.59325 19.3515 -5.01956 14.8175 -30.0271 -6.33711 -0.0 0.0 0.0 -0.0 0.0 0.0 6.1863e-13 -4.67541e-13 -1.75362e-13 42.7002 -5.86406 -21.0053 -10.2097 -4.27896 18.1821 -0.21059 13.7811 1.96883 -2.65324e-10 -7.31778e-10 1.51456e-09 -4.37254e-10 -1.28935e-09 2.61523e-09 -2.65319e-10 -7.31776e-10 1.51454e-09 7.73091 5.47488 0.417314 -2.65324e-10 -7.31777e-10 1.51456e-09 2.90554 0.965183 0.102902 -2.65314e-10 -7.3178e-10 1.51456e-09 10.2786 0.731801 0.0259123 -2.65329e-10 -7.31778e-10 1.51457e-09 2.22167 -0.733487 -0.20892 6.186e-13 -4.67542e-13 -1.75465e-13 1.85558 33.4162 -29.1881 21.0523 -14.3916 -41.314 0.067521 -7.37632 1.04252 1.20548e-09 -8.16153e-10 1.34685e-09 2.06951e-09 -1.44331e-09 2.33598e-09 1.20549e-09 -8.16148e-10 1.34687e-09 -7.73091 5.47488 -0.417314 1.20549e-09 -8.1615e-10 1.34685e-09 -2.90554 0.965183 -0.102902 1.20548e-09 -8.16158e-10 1.34685e-09 -10.2786 0.731801 -0.0259123 1.20549e-09 -8.16151e-10 1.34685e-09 -2.22167 -0.733487 0.20892 -2.03217e-16 0.0 -3.88251e-19 -31.9623 -64.3635 -30.5237 -150.666 87.7401 150.764 -5.69541 -14.7962 -11.0869 2.03217e-16 0.0 3.88251e-19 86.0902 -34.6363 93.377 177.161 40.4382 -175.736 3.2323 22.9475 -24.1334
46.6563 15.2829 18.9099 -63.3766 13.5076 -79.8959 12.6649 35.5261 -11.8102 7.7849 1.84646 -2.28964 -4.51442 19.4173 -4.83659 14.8696 -29.5576 -6.01341 -0.0 0.0 0.0 -0.0 0.0 0.0 5.65972e-13 -4.48757e-13 -3.09628e-13 43.2185 -4.51472 -21.1945 -10.8281 -4.66543 19.3566 -0.12704 10.8325 1.53675 -5.12942e-10 -4.54651e-10 1.07892e-09 -8.7268e-10 -7.98088e-10 1.86759e-09 -5.12936e-10 -4.54649e-10 1.0789e-09 7.73091 5.47488 0.417314 -5.12942e-10 -4.54649e-10 1.07892e-09 2.90554 0.965183 0.102902 -5.12932e-10 -4.54653e-10 1.07893e-09 10.2786 0.731801 0.0259123 -5.12945e-10 -4.54651e-10 1.07894e-09 2.22167 -0.733487 -0.20892 5.65937e-13 -4.48756e-13 -3.09789e-13 1.97671 33.7474 -29.2027 20.7092 -13.927 -40.4409 0.0733235 -7.69758 1.08845 4.17141e-10 -1.21127e-09 9.84346e-10 7.08228e-10 -2.11754e-09 1.70464e-09 4.17143e-10 -1.21127e-09 9.84365e-10 -7.73091 5.47488 -0.417314 4.17143e-10 -1.21127e-09 9.84344e-10 -2.90554 0.965183 -0.102902 4.17134e-10 -1.21128e-09 9.84345e-10 -10.2786 0.731801 -0.0259123 4.17148e-10 -1.21127e-09 9.8434e-10 -2.22167 -0.733487 0.20892 -2.03217e-16 0.0 -3.88251e-19 -34.2724 -66.2215 -32.7114 -40.2708 88.3118 40.0555 -5.31172 -14.5867 -10.7917 2.03217e-16 0.0 3.88251e-19 82.7921 -29.4001 88.9879 177.18 40.712 -175.903 1.26539 18.9224 -25.9053
47.2496 15.1566 18.155 -63.1722 12.9194 -81.3114 12.2009 35.9907 -12.8851 8.38712 2.16582 -2.65543 -4.44711 19.5079 -4.68467 14.7868 -29.0936 -5.787 -0.0 0.0 0.0 -0.0 0.0 0.0 5.23195e-13 -4.19833e-13 -3.92649e-13 43.4332 -3.44453 -21.2723 -11.3958 -5.03391 20.4466 -0.0945449 8.73686 1.23759 -6.18149e-10 -3.2836e-10 6.57821e-10 -1.06057e-09 -5.70948e-10 1.14254e-09 -6.18143e-10 -3.28359e-10 6.57799e-10 7.73091 5.47488 0.417314 -6.1815e-10 -3.28358e-10 6.57821e-10 2.90554 0.965183 0.102902 -6.18138e-10 -3.28362e-10 6.57823e-10 10.2786 0.731801 0.0259123 -6.18151e-10 -3.2836e-10 6.57831e-10 2.22167 -0.733487 -0.20892 5.23143e-13 -4.19833e-13 -3.92848e-13 1.76604 33.9664 -29.0746 20.3336 -13.4372 -39.496 0.0758481 -7.83303 1.10784 1.72679e-10 -1.21062e-09 8.39736e-10 2.86181e-10 -2.11334e-09 1.45313e-09 1.7268e-10 -1.21061e-09 8.39755e-10 -7.73091 5.47488 -0.417314 1.7268e-10 -1.21061e-09 8.39733e-10 -2.90554 0.965183 -0.102902 1.72672e-10 -1.21062e-09 8.39736e-10 -10.2786 0.731801 -0.0259123 1.72683e-10 -1.21061e-09 8.3973e-10 -2.22167 -0.733487 0.20892 -2.03217e-16 0.0 -3.88251e-19 -36.6269 -67.9102 -34.3425 -13.1016 85.2478 12.6335 -5.03261 -14.4665 -10.6751 2.03217e-16 0.0 3.88251e-19 80.289 -25.3844 86.2302 177.185 41.2708 -175.971 -0.495715 15.5204 -26.9756
47.8724 15.0072 17.3389 -63.0197 12.4729 -82.7484 11.3662 36.4314 -13.888 9.28918 2.51293 -3.06755 -4.39846 19.6477 -4.57198 14.5195 -28.7202 -5.67998 -0.0 0.0 0.0 -0.0 0.0 0.0 4.90707e-13 -3.73959e-13 -3.91003e-13 43.1961 -2.7627 -21.2172 -11.8935 -5.37108 21.4083 -0.086411 7.82043 1.10837 -5.36261e-10 -3.69097e-10 2.4262e-10 -9.23293e-10 -6.36855e-10 4.24271e-10 -5.36256e-10 -3.69095e-10 2.42598e-10 7.73091 5.47488 0.417314 -5.36262e-10 -3.69093e-10 2.4262e-10 2.90554 0.965183 0.102902 -5.3625e-10 -3.69096e-10 2.42621e-10 10.2786 0.731801 0.0259123 -5.36262e-10 -3.69095e-10 2.42628e-10 2.22167 -0.733487 -0.20892 4.90617e-13 -3.73968e-13 -3.91211e-13 1.05306 34.0277 -28.7081 19.9324 -12.9234 -38.5245 0.0741225 -7.73712 1.09412 8.69137e-10 -5.08637e-10 1.08454e-09 1.48913e-09 -9.06392e-10 1.88012e-09 8.69137e-10 -5.0863e-10 1.08456e-09 -7.73091 5.47488 -0.417314 8.69138e-10 -5.08633e-10 1.08453e-09 -2.90554 0.965183 -0.102902 8.69129e-10 -5.0864e-10 1.08454e-09 -10.2786 0.731801 -0.0259123 8.69139e-10 -5.08633e-10 1.08453e-09 -2.22167 -0.733487 0.20892 -2.03217e-16 0.0 -3.88251e-19 -38.7551 -69.4304 -35.0194 -7.34848 81.8436 6.69837 -4.87876 -14.4284 -10.7634 2.03217e-16 0.0 3.88251e-19 77.8494 -23.3821 84.0887 177.162 42.2319 -175.892 -1.80448 12.6694 -26.9276
